<svg width="51" height="30" viewBox="0 0 51 30" fill="none" xmlns="http://www.w3.org/2000/svg">
<path d="M47.0342 3.35025C45.0874 1.39114 42.4962 0.215795 39.7484 0.0454292C37.0008 -0.124937 34.2859 0.721417 32.1148 2.42521C30.1324 0.874883 27.6934 0.0330728 25.1828 0.0325831C22.6723 0.0320935 20.2331 0.872954 18.25 2.42251C15.9883 0.636192 13.1345 -0.213867 10.2712 0.0458754C7.408 0.305617 4.75121 1.65557 2.84327 3.82014C0.935325 5.98472 -0.0798779 8.80065 0.004914 11.6931C0.0897059 14.5855 1.2681 17.3364 3.29952 19.3839L10.2371 26.3679C10.2424 26.3731 10.2478 26.3782 10.2539 26.3836C10.2599 26.389 10.2616 26.3916 10.2655 26.3955C10.2727 26.4027 10.2804 26.4093 10.2876 26.4166C10.3979 26.5264 10.5098 26.6334 10.6235 26.7377C10.6819 26.7916 10.741 26.8439 10.8004 26.8964C10.8487 26.9387 10.8972 26.9806 10.9459 27.022C12.9235 28.7086 15.4175 29.659 18.009 29.7131C20.6007 29.7674 23.1317 28.9223 25.1773 27.3197C27.3483 29.0234 30.0632 29.8698 32.8109 29.6994C35.5587 29.5291 38.1498 28.3537 40.0967 26.3946L47.0344 19.4116C49.1473 17.2801 50.3338 14.3919 50.3338 11.3809C50.3338 8.36984 49.1472 5.48177 47.0342 3.35025ZM25.1807 2.99058C26.8301 2.98952 28.4428 3.48104 29.8145 4.40292C31.1864 5.3248 32.2556 6.63559 32.8869 8.1694C33.5183 9.70321 33.6834 11.3911 33.3613 13.0194C33.0392 14.6477 32.2445 16.1432 31.0776 17.3166L25.1807 23.252L19.2835 17.3166C18.1167 16.1432 17.3219 14.6476 16.9998 13.0193C16.6777 11.391 16.8428 9.70315 17.4742 8.16933C18.1056 6.63551 19.1749 5.32471 20.5466 4.40285C21.9185 3.48099 23.5312 2.98948 25.1807 2.99058ZM9.90308 18.3642C9.90008 17.2613 10.1144 16.1689 10.5337 15.1501C10.953 14.1313 11.5689 13.2062 12.3458 12.4286L13.9153 10.8488C13.8393 12.4279 14.0925 14.0055 14.6586 15.4803C15.2247 16.9549 16.0911 18.294 17.2022 19.4116L22.9786 25.2258C21.7326 26.1042 20.271 26.6216 18.7531 26.7213C17.2352 26.821 15.7192 26.4996 14.3703 25.7917C13.0215 25.0837 11.8916 24.0169 11.1038 22.707C10.316 21.3972 9.90057 19.8948 9.90275 18.3637L9.90308 18.3642ZM5.38053 17.2887C3.90445 15.8033 3.03548 13.8147 2.94529 11.7158C2.85511 9.61679 3.55024 7.56009 4.89338 5.95196C6.23653 4.34381 8.13003 3.30117 10.1998 3.02998C12.2696 2.75879 14.3652 3.27879 16.0726 4.48724L10.2644 10.3334C9.21343 11.3856 8.38018 12.6371 7.81293 14.0156C7.24571 15.3941 6.95573 16.8721 6.95981 18.3642C6.95981 18.5403 6.96389 18.7157 6.97207 18.8907L5.38053 17.2887ZM32.1187 26.7582C30.4148 26.7622 28.7513 26.2369 27.355 25.2539L33.1598 19.4116C34.2709 18.294 35.1372 16.9549 35.7033 15.4802C36.2693 14.0055 36.5225 12.4279 36.4466 10.8488L38.0162 12.4286C39.1825 13.6026 39.9766 15.0983 40.2984 16.7266C40.6203 18.3549 40.455 20.0427 39.8237 21.5766C39.1924 23.1104 38.1235 24.4213 36.7521 25.3437C35.3805 26.266 33.7682 26.7582 32.1187 26.7582ZM44.9532 17.3166L43.3894 18.8907C43.3973 18.7159 43.4013 18.5405 43.4017 18.3642C43.4057 16.8721 43.1157 15.3941 42.5485 14.0156C41.9812 12.6371 41.1479 11.3856 40.0969 10.3334L34.2928 4.49113C36.0032 3.29309 38.0973 2.78303 40.1627 3.06135C42.2281 3.33966 44.1151 4.3862 45.4523 5.99491C46.7894 7.60361 47.4797 9.6579 47.3874 11.7533C47.295 13.8487 46.4267 15.8334 44.9532 17.3166Z" fill="#025595"/>
</svg>
