<svg width="48" height="48" viewBox="0 0 48 48" fill="none" xmlns="http://www.w3.org/2000/svg">
<rect width="48" height="48" rx="24" fill="#025595"/>
<path d="M27.15 20.4001C26.3836 20.3974 25.6241 20.546 24.9151 20.8371C24.2062 21.1283 23.5615 21.5564 23.0182 22.097C22.4748 22.6376 22.0434 23.28 21.7486 23.9875C21.4538 24.6949 21.3013 25.4536 21.3 26.2201V32.1001C21.3 32.3388 21.3948 32.5677 21.5636 32.7365C21.7324 32.9052 21.9613 33.0001 22.2 33.0001H24.3C24.5387 33.0001 24.7676 32.9052 24.9364 32.7365C25.1052 32.5677 25.2 32.3388 25.2 32.1001V26.2201C25.1998 25.9475 25.2571 25.6779 25.3681 25.4289C25.479 25.1799 25.6412 24.9571 25.8441 24.775C26.0469 24.5929 26.2859 24.4556 26.5454 24.372C26.8048 24.2885 27.079 24.2606 27.35 24.2901C27.836 24.3513 28.2827 24.5887 28.6052 24.9574C28.9278 25.326 29.1039 25.8002 29.1 26.2901V32.1001C29.1 32.3388 29.1948 32.5677 29.3636 32.7365C29.5324 32.9052 29.7613 33.0001 30 33.0001H32.1C32.3387 33.0001 32.5676 32.9052 32.7364 32.7365C32.9052 32.5677 33 32.3388 33 32.1001V26.2201C32.9987 25.4536 32.8463 24.6949 32.5515 23.9875C32.2566 23.28 31.8252 22.6376 31.2818 22.097C30.7385 21.5564 30.0939 21.1283 29.3849 20.8371C28.6759 20.546 27.9165 20.3974 27.15 20.4001Z" fill="white"/>
<path d="M18.6 21.3H15.9C15.4029 21.3 15 21.703 15 22.2V32.1C15 32.5971 15.4029 33 15.9 33H18.6C19.0971 33 19.5 32.5971 19.5 32.1V22.2C19.5 21.703 19.0971 21.3 18.6 21.3Z" fill="white"/>
<path d="M17.25 19.5C18.4926 19.5 19.5 18.4926 19.5 17.25C19.5 16.0074 18.4926 15 17.25 15C16.0074 15 15 16.0074 15 17.25C15 18.4926 16.0074 19.5 17.25 19.5Z" fill="white"/>
</svg>
