<svg width="30" height="30" viewBox="0 0 30 30" fill="none" xmlns="http://www.w3.org/2000/svg">
<path opacity="0.4" d="M25.7349 10.5625C24.4245 4.7875 19.3948 2.1875 14.9767 2.1875C14.9767 2.1875 14.9767 2.1875 14.9642 2.1875C10.5586 2.1875 5.5164 4.775 4.20594 10.55C2.74571 17 6.68957 22.4625 10.259 25.9C11.582 27.175 13.2793 27.8125 14.9767 27.8125C16.674 27.8125 18.3714 27.175 19.6819 25.9C23.2513 22.4625 27.1952 17.0125 25.7349 10.5625Z" fill="#025595"/>
<path d="M14.9761 16.8252C17.1474 16.8252 18.9075 15.0623 18.9075 12.8877C18.9075 10.7131 17.1474 8.9502 14.9761 8.9502C12.8049 8.9502 11.0448 10.7131 11.0448 12.8877C11.0448 15.0623 12.8049 16.8252 14.9761 16.8252Z" fill="#025595"/>
</svg>
